<svg xmlns="http://www.w3.org/2000/svg" width="48.001" height="48" viewBox="0 0 48.001 48">
  <path id="_1" data-name="1" d="M25.026,47.116a12.856,12.856,0,0,0-2.712-2.734l-.353.063C7.867,46.7-2.116,40.161.384,20.2c10.638,4.018,25.96,3.05,23.728,21.82a5.027,5.027,0,0,1-.313,1.511h0a8.209,8.209,0,0,1,1.7,3c.306.89.49,1.473.341,1.473C25.747,48,25.5,47.734,25.026,47.116ZM20.152,40.4Zm-.005-.012C16.875,32.8,7.924,29.957,3.628,24.71,8.177,34.212,10.842,33.888,20.147,40.391Zm8.635,5.081c-.159-.477-.29-.84-.4-1.145h.048a20.72,20.72,0,0,0,4.053-1.234,23,23,0,0,0,3.7-1.953,21.031,21.031,0,0,0,5.787-5.694,22.383,22.383,0,0,0,1.985-3.636l.023-.054a20,20,0,0,0,1.231-3.933,21.242,21.242,0,0,0,.428-4.28,21.529,21.529,0,0,0-.23-3.183,14.1,14.1,0,0,0-.623,4.16l-1.191.359h-.179l-1-3.008-.774-2.406L39.018,24.1l-.869.539-.9-5-1.723-1.2-4.89-.843c1.139,2.9,5.1,5.354-1.191,6.639.5,1.491,3.457.214.659,3.815q-1.338,1.719-2.1,2.875l.448,3.215c.048.355-.194.723-.766,1.094l-.036.023c-1.06-9.752-7.752-12.963-15.27-15.146a4.115,4.115,0,0,1,1.715-2.284c1.81-2.566,3.144-3.257,6.073-3.257V16.3l2.488,1.075.234-1.075a4.091,4.091,0,0,1,1.318.492c.7.445,2.664.606,2.854-.473a8.162,8.162,0,0,0,.127-1.48l-1.984.176c-.917-1.886-3.219-1.664-5.759-4.28-8.593,3.038-3.811.98-3.811-1.734L19.3,7.35c-.329-2.855-.365-.219-.905-2.808a18.562,18.562,0,0,0,2.382-1.581c.234-.18.456-.337.659-.469h-.016c-.571.067-1.135.152-1.691.262a20.782,20.782,0,0,0-4.053,1.234,22.962,22.962,0,0,0-3.7,1.953A21.031,21.031,0,0,0,6.2,11.635a22.317,22.317,0,0,0-1.985,3.636l-.024.054a19.65,19.65,0,0,0-.829,2.3c-.512-.145-.989-.309-1.473-.481a3.52,3.52,0,0,0-.794-.266,21.77,21.77,0,0,1,.894-2.461l.023-.062A24.561,24.561,0,0,1,4.235,10.35a23.515,23.515,0,0,1,6.434-6.331,25.178,25.178,0,0,1,4.077-2.18A23.378,23.378,0,0,1,19.271.46a25.261,25.261,0,0,1,9.6,0A23.446,23.446,0,0,1,33.33,1.816l.064.023a25.169,25.169,0,0,1,4.076,2.18,23.52,23.52,0,0,1,6.446,6.331,24.433,24.433,0,0,1,2.215,4.011,22.528,22.528,0,0,1,1.406,4.448,24.278,24.278,0,0,1,0,9.452,22.255,22.255,0,0,1-1.382,4.389l-.024.063a24.462,24.462,0,0,1-2.215,4.01,23.531,23.531,0,0,1-6.434,6.332,25.165,25.165,0,0,1-4.076,2.179,23.534,23.534,0,0,1-4.287,1.332C29.027,46.222,28.912,45.863,28.781,45.472Zm.183-42.606c-.175-.042-.354-.077-.532-.113-.663-.13-1.342-.23-2.029-.3A4.273,4.273,0,0,0,28.964,2.866Z" transform="translate(0 0)" fill="#036456"/>
</svg>
