<svg xmlns="http://www.w3.org/2000/svg" width="48" height="48.001" viewBox="0 0 48 48.001">
  <path id="_2" data-name="2" d="M17.125,29.659l3.8,11.915L22.84,34.5l-.937-1.09a1.731,1.731,0,0,1-.277-1.726c.508-1.073,1.563-.874,2.539-.874s2.3-.2,2.621,1.165a1.912,1.912,0,0,1-.328,1.435L25.52,34.5l1.91,7.072,3.43-11.915c2.484,2.38,9.84,2.858,12.578,4.485A7.275,7.275,0,0,1,45.73,36.2c1.7,2.4,1.832,6.24,2.27,9.2a2.579,2.579,0,0,1-2.629,2.617H2.629A2.586,2.586,0,0,1,0,45.4c.438-2.983.566-6.81,2.27-9.2a7.233,7.233,0,0,1,2.277-2.051c2.734-1.627,10.094-2.105,12.578-4.485ZM20.746,2.506a.737.737,0,0,1-.273-.042c-2.43,1.161-4.395,3.7-4.93,7.946a.838.838,0,0,1-.93.736.792.792,0,0,1-.548-.313.9.9,0,0,1-.175-.635c.621-4.934,3-7.9,5.941-9.29A9.61,9.61,0,0,1,24.52.039,10.864,10.864,0,0,1,29.125,1.37a10.462,10.462,0,0,1,5.469,8.9.866.866,0,0,1-.8.919.856.856,0,0,1-.863-.853,8.778,8.778,0,0,0-4.594-7.463c-.109-.058-.215-.116-.328-.171a.771.771,0,0,1-.3.046c-.758-.017-.953,1.423-1,3.353V8.9c0,.778.031,1.568.031,2.08a.83.83,0,1,1-1.656,0c0-.861,0-1.469-.023-2.08,0-1-.035-1.972,0-2.866a8.186,8.186,0,0,1,.84-4.119A8.87,8.87,0,0,0,24.434,1.7a8.567,8.567,0,0,0-1.848.087,8.852,8.852,0,0,1,.781,4.085c.023.924,0,1.934,0,2.97,0,.62-.02,1.248-.02,2.122a.807.807,0,0,1-1.613,0c0-.545,0-1.352.027-2.147,0-1.019.035-2.009,0-2.912C21.719,3.958,21.516,2.506,20.746,2.506ZM33.8,14.092q.094.245.176.487h0c.086.25.164.508.238.765v.025c.094.5.148.757.184.911h0a1.949,1.949,0,0,1,.051.262v1.223h0a7.356,7.356,0,0,1-.137.965,10.235,10.235,0,0,1-.262.994h0a4.816,4.816,0,0,1-.781,1.493,1.73,1.73,0,0,1-.848.645l-.176.707a10.527,10.527,0,0,1-3.027,5.242h0a6.948,6.948,0,0,1-4.895,1.855,7.252,7.252,0,0,1-4.945-2.03,12.324,12.324,0,0,1-3.18-5.558c-.035-.141-.09-.3-.133-.449a1.822,1.822,0,0,1-1.25-1.032,7.172,7.172,0,0,1-.781-2.629,5.964,5.964,0,0,1,.2-1.976,13.424,13.424,0,0,1,.543-1.664,5.533,5.533,0,0,1-.477-.291,4.871,4.871,0,0,1-1.816-2.022l1.516-.7h0a3.172,3.172,0,0,0,1.211,1.3c1.848,1.248,5.1,1.822,8.465,1.835A21.4,21.4,0,0,0,32.7,12.765a4.409,4.409,0,0,0,1.863-1.523l1.43.874A5.644,5.644,0,0,1,33.8,14.1Zm-17.578.932a3.634,3.634,0,0,0-.645,2.625,6.623,6.623,0,0,0,.32,1.706,2.178,2.178,0,0,0,.547.973h0a.2.2,0,0,0,.164.05.459.459,0,0,1,.391.05.571.571,0,0,1,.246.312c.094.279.176.6.258.886a9.261,9.261,0,0,0,3.383,5.05,6.271,6.271,0,0,0,3.516,1.19,5.712,5.712,0,0,0,3.445-1.1A8.323,8.323,0,0,0,30.8,22.188c.066-.27.133-.516.207-.79l.086-.312a.592.592,0,0,1,.207-.312h0a.45.45,0,0,1,.359-.083c.141.025.313-.087.484-.291a3.606,3.606,0,0,0,.582-1.09,6.855,6.855,0,0,0,.156-2.276,11.625,11.625,0,0,0-.551-2.122.239.239,0,0,1,0-.1v-.021c-4.3,1.664-11.551,1.947-16.1.254Z" transform="translate(0 -0.017)" fill="#036456" fill-rule="evenodd"/>
</svg>
