<svg xmlns="http://www.w3.org/2000/svg" width="48" height="48.001" viewBox="0 0 48 48.001">
  <path id="_3" data-name="3" d="M12.953,43.976h9.164a.605.605,0,0,1,.61.571v2.864a.6.6,0,0,1-.61.59H12.48a.6.6,0,0,1-.61-.59V44.547a.6.6,0,0,1,.61-.59h.473ZM10.034,15.564a1.034,1.034,0,0,1-.72-.27.982.982,0,0,1-.323-.688v-.051a1.006,1.006,0,0,1,.99-.969c.748-.031,1.5-.051,2.239-.074a.99.99,0,1,1,.065,1.977l-2.252.074Zm27.891-3.071A1.016,1.016,0,0,1,39,13.383v.047a.958.958,0,0,1-.206.676,1.037,1.037,0,0,1-.687.363L35.88,14.7a1.051,1.051,0,0,1-.754-.217.984.984,0,0,1-.374-.67.943.943,0,0,1,.222-.723,1.029,1.029,0,0,1,.691-.363c.748-.074,1.528-.176,2.276-.231Zm-4.446-8.62a1.049,1.049,0,0,1,1.415-.262h0a.968.968,0,0,1,.275,1.368L33.944,6.783a1.021,1.021,0,0,1-.653.422,1.047,1.047,0,0,1-.77-.153h0a.968.968,0,0,1-.428-.625.951.951,0,0,1,.154-.742c.428-.586.808-1.211,1.249-1.809ZM23.814.977a.378.378,0,0,1,0-.066A1.014,1.014,0,0,1,24.853,0h.065a1,1,0,0,1,.942,1,.106.106,0,0,1,0,.051L25.8,3.165a.378.378,0,0,1,0,.066,1.014,1.014,0,0,1-1.035.91H24.7a1.033,1.033,0,0,1-.663-.3.982.982,0,0,1-.283-.711.2.2,0,0,1,0-.051L23.81.961Zm-11.1,3.689a.974.974,0,0,1-.323-.692.958.958,0,0,1,.271-.707,1.059,1.059,0,0,1,.715-.317,1.039,1.039,0,0,1,.732.266l1.645,1.473a.973.973,0,0,1,.053,1.4,1.046,1.046,0,0,1-1.447.051L12.718,4.662Zm5.772,16.15a12.27,12.27,0,0,1-2.142-2.966,8.711,8.711,0,0,1-.93-3.884,8.928,8.928,0,0,1,1.148-4.158V9.769h0a8.088,8.088,0,0,1,3.982-3.361,9.074,9.074,0,0,1,4.139-.547,9.734,9.734,0,0,1,3.953,1.227,7.974,7.974,0,0,1,3.452,3.783,8.032,8.032,0,0,1-.028,6.377,12.123,12.123,0,0,1-2.425,3.611L28.26,22.981a.581.581,0,0,0-.2,0l-2.062.3,2.462-8.292a.328.328,0,0,0-.234-.406.342.342,0,0,0-.42.227l-2.551,8.6-2.462.356-2.615-8.065.04.027a.412.412,0,0,0,.525-.133l1.835-3.021.954,2.11a.389.389,0,0,0,.707,0l.857-2.094.994,2.532a.394.394,0,0,0,.3.356.411.411,0,0,0,.443-.164.38.38,0,0,0-.022-.458l-1.354-3.415a.4.4,0,0,0-.226-.234.392.392,0,0,0-.293,0,.373.373,0,0,0-.2.2l-.885,2.157-.885-1.954a.364.364,0,0,0-.158-.172.391.391,0,0,0-.289-.038.379.379,0,0,0-.232.171l-2.2,3.642a.676.676,0,0,0-.036.078l-.21-.649a.344.344,0,0,0-.428-.215.328.328,0,0,0-.222.414l2.927,8.988-1.795.258a9.919,9.919,0,0,0-1.827-3.271Zm9.156,3.376-.166.746-.044.528-6.613.953a7.75,7.75,0,0,0-.186-1.219l7.009-1.008Zm-.218,2.434v.449a4.663,4.663,0,0,1,0,.629l-.081.43-6.144.9L21.09,28.8l-.238-.95v-.274l6.581-.946Zm-.485,2.735a3.456,3.456,0,0,1-1.257,1.219,3.355,3.355,0,0,1-1.439.43,3.059,3.059,0,0,1-1.488-.277,3.025,3.025,0,0,1-.885-.645Zm7.967,13.231H25.9a.615.615,0,0,1-.423-.189.575.575,0,0,1-.159-.424c0-.391.04-.782.069-1.125s.069-.742.117-1.121c.077-.633.141-1.172.23-1.669a6.441,6.441,0,0,1,.38-1.383,4.679,4.679,0,0,1,.728-1.2,8.592,8.592,0,0,1,1.241-1.2l.307-.25c.1-.078.21-.164.331-.25s.218-.156.336-.231a3.794,3.794,0,0,1,.356-.207A20.523,20.523,0,0,0,33.451,29.8c.562-.578,1.083-1.114,1.544-1.536.7-.66,1.451-1.329,2.13-2.009h0a5.643,5.643,0,0,1,.808-.754,3.6,3.6,0,0,1,.861-.516,2.119,2.119,0,0,1,1.306-.094,1.706,1.706,0,0,1,.6.281,1.378,1.378,0,0,1,.437.551,1.514,1.514,0,0,1,.049,1.016,2.372,2.372,0,0,1-.311.672,3.37,3.37,0,0,1-.509.59c-1.928,2.032-3.848,4.646-5.809,6.541a.21.21,0,0,0,.166.363.193.193,0,0,0,.141-.059l.049-.047,6.362-5.861a3.69,3.69,0,0,0,.368-.391,3.013,3.013,0,0,0,.291-.418.313.313,0,0,1,.053-.074v-.031l3.2-7.37a.651.651,0,0,1,.113-.168,2.5,2.5,0,0,1,.582-.461,1.786,1.786,0,0,1,.691-.231,1.224,1.224,0,0,1,.36.02,1.043,1.043,0,0,1,.352.137,1.322,1.322,0,0,1,.323.309,1.734,1.734,0,0,1,.194.363,3.534,3.534,0,0,1,.141,1.645,9.462,9.462,0,0,1-.513,2.063L46.349,28l-.23.782-.19.68a13.913,13.913,0,0,1-.958,2.771,13.241,13.241,0,0,1-2.082,2.817q-1.376,1.53-2.7,2.794t-2.6,2.415l-1.152,1.055-.028.031c-.38.348-.744.692-1.091,1.024a.607.607,0,0,1-.461.2Zm.627,1.383a.605.605,0,0,1,.61.571v2.864a.6.6,0,0,1-.61.59H25.9a.6.6,0,0,1-.61-.59V44.547a.6.6,0,0,1,.61-.59h9.633Zm-13.44-1.383H13.106a.619.619,0,0,1-.461-.2c-.348-.332-.711-.676-1.087-1.024L10.374,40.28c-.841-.782-1.706-1.563-2.591-2.415s-1.791-1.774-2.7-2.794a13.3,13.3,0,0,1-2.086-2.817,13.913,13.913,0,0,1-.958-2.771l-.19-.684-.23-.782c-.36-1.227-.707-2.47-1.087-3.689a9.673,9.673,0,0,1-.505-2.055,3.534,3.534,0,0,1,.141-1.645,1.569,1.569,0,0,1,.2-.363,1.241,1.241,0,0,1,.319-.309,1.031,1.031,0,0,1,.356-.137,1.2,1.2,0,0,1,.356-.02,1.762,1.762,0,0,1,.691.231,2.5,2.5,0,0,1,.582.461.651.651,0,0,1,.113.168l3.2,7.37v.031a.5.5,0,0,1,.073.074,3.361,3.361,0,0,0,.287.418,3.743,3.743,0,0,0,.372.391l6.358,5.861.049.047a.2.2,0,0,0,.141.059.237.237,0,0,0,.146-.035l.04-.035a.238.238,0,0,0,.053-.133.21.21,0,0,0-.04-.137.394.394,0,0,1-.053-.063C11.6,32.476,9.521,29.866,7.629,28a3.189,3.189,0,0,1-.505-.586,2.372,2.372,0,0,1-.311-.672,1.514,1.514,0,0,1,.049-1.016,1.413,1.413,0,0,1,.437-.551,1.69,1.69,0,0,1,.6-.281,2.086,2.086,0,0,1,1.3.094,3.6,3.6,0,0,1,.869.5,5.435,5.435,0,0,1,.808.754h0c.675.68,1.427,1.348,2.13,2.009.457.422.982.957,1.544,1.536A20.991,20.991,0,0,0,18.6,33.34a3.717,3.717,0,0,1,.352.207c.121.074.23.152.34.231s.21.156.327.25c0,0,.3.25.311.25a8.75,8.75,0,0,1,1.237,1.2,4.816,4.816,0,0,1,.732,1.2v.035a6.671,6.671,0,0,1,.364,1.348c.089.488.158,1.036.234,1.669.024.215.053.473.081.782s.049.535.061.754l.044.727a.6.6,0,0,1-.558.6Z" transform="translate(0.018 0)" fill="#036456"/>
</svg>
