<svg xmlns="http://www.w3.org/2000/svg" width="64" height="35.024" viewBox="0 0 64 35.024">
  <path id="_4" data-name="4" d="M40.889,20.913l-.109-4.146-6.818,1.969a8.4,8.4,0,0,1-1.813.2,8.767,8.767,0,0,1-1.88-.2l-6.511-1.99v4.2c.188,2.182,6.454,2.854,8.381,2.948,1.542.073,7.631-.729,8.428-1.985a2.362,2.362,0,0,0,.323-1ZM1.406,32.221H8.37a1.206,1.206,0,0,1-.9-1.162V1.2A1.2,1.2,0,0,1,8.667,0H55.015a1.2,1.2,0,0,1,1.2,1.2V31.049a1.2,1.2,0,0,1-.9,1.162h7.282A1.407,1.407,0,0,1,64,33.617h0a1.407,1.407,0,0,1-1.406,1.406H1.406A1.407,1.407,0,0,1,0,33.617H0a1.4,1.4,0,0,1,1.406-1.4ZM9.522,1.88H54.333V30.716H9.522V1.88ZM30.028,32.747h3.948a.678.678,0,0,1,.677.672h0a.679.679,0,0,1-.677.677H30.028a.679.679,0,0,1-.677-.677h0a.678.678,0,0,1,.677-.672ZM43.649,13.782V18.85h.161a.2.2,0,0,1,.2.2v1.359a.2.2,0,0,1-.2.2h-.161v.479a.442.442,0,0,1,.359.432h0a.445.445,0,0,1-.438.443h-.787a.446.446,0,0,1-.443-.443h0a.446.446,0,0,1,.359-.432v-.479H42.54a.2.2,0,0,1-.2-.2V19.048a.2.2,0,0,1,.2-.2H42.7V14.079l-8.292,2.578a9.287,9.287,0,0,1-4.506,0l-9.152-2.735-.828-.25c-1.031-.422-.771-1.412.182-1.641L30.461,8.938a5.376,5.376,0,0,1,3.2,0L43.826,12c1.1.271,1.323,1.292.036,1.714l-.214.073Z" transform="translate(0 0)" fill="#036456" fill-rule="evenodd"/>
</svg>
