<svg xmlns="http://www.w3.org/2000/svg" width="48" height="48" viewBox="0 0 48 48">
  <path id="_5" data-name="5" d="M4.667,2.133H43.333V0H45.6V28.137c.647-.121,1.276-.25,1.9-.383L48,29.84c-1.272.273-2.594.52-3.958.746L26.71,38.141l18.165,7.918L43.926,48,24.008,39.32,4.09,48l-.949-1.941,18.165-7.918L4,30.6c-1.363-.227-2.7-.477-4-.758l.5-2.086c.622.133,1.256.262,1.9.383V0H4.671V2.133ZM23.988,7.156l1.467,4.277,4.77-.008-3.867,2.637,1.484,4.273-3.854-2.648-3.854,2.648,1.484-4.273L17.75,11.426l4.77.008,1.467-4.277ZM4.667,28.535l.012.008A122.493,122.493,0,0,0,23.9,29.984a124.453,124.453,0,0,0,19.425-1.449V23.363H4.662v5.172Zm31.75,3.023c-4.032.375-8.26.566-12.508.566-4.115,0-8.26-.18-12.276-.555L24,36.961l12.412-5.4Z" fill="#036456" fill-rule="evenodd"/>
</svg>
