<svg xmlns="http://www.w3.org/2000/svg" width="48" height="56.209" viewBox="0 0 48 56.209">
  <path id="_6" data-name="6" d="M31.1,23.523a8.483,8.483,0,0,1,1.708-.873,18.446,18.446,0,0,1,3.444-.265c1.663-.041,3.321.105,3.485.457a1.827,1.827,0,0,1,.187.959,2.161,2.161,0,0,1-.311.914A6.368,6.368,0,0,1,37.646,26.5c-.758.521-1.453,1-1.338,1.37,0,.032.082.091.192.183a7.107,7.107,0,0,0,.658.457,10.128,10.128,0,0,1,2.453,2.028,12.7,12.7,0,0,1,1.736,2.691c.155.306.306.626.457.955s.3.7.457,1.064l.027.114a3.106,3.106,0,0,0,.338,1.092c.069.114.137.169.2.169h1.119c.749-.055,1.169-.082,1.6,1.042a7.693,7.693,0,0,1,.361,2.937,10.735,10.735,0,0,1-.571,3.157A2.193,2.193,0,0,1,44.6,45.03a2.563,2.563,0,0,1-1.485.544H41.245c-.247,0-.283-.041-.315-.023s0,.023-.05.105a9.032,9.032,0,0,1-.914,1.105c-.375.388-.813.818-1.233,1.215s-.777.713-1.1.982l-.2.164a3.366,3.366,0,0,0-.548.489,3.458,3.458,0,0,0,.306.859c.091.219.146.347.164.4.215.525.429,1.032.621,1.476.324.749.685,1.544.8,1.827V54.2a1.329,1.329,0,0,1-.164,1.549,1.827,1.827,0,0,1-1.48.379h-3.2a2.188,2.188,0,0,1-1.252-.288,3.271,3.271,0,0,1-1.023-.964l-.027-.05a8.282,8.282,0,0,1-.365-.749c-.306-.69-.69-1.544-1-1.421a19.346,19.346,0,0,1-6.482,1.407,22.685,22.685,0,0,1-7.387-1.1c-.79-.11-.95.224-1.206.754-.073.151-.146.311-.251.512h0c-.064.128-.087.183-.11.228-.365.781-.717,1.535-1.827,1.759h-.119l-4.07-.032H8.78A1.617,1.617,0,0,1,8.117,56,1.211,1.211,0,0,1,7.6,55.5a1.622,1.622,0,0,1,.128-1.667h0l.1-.2h0L9.25,50.5l.027-.055a.955.955,0,0,0,.174-.635.914.914,0,0,0-.352-.457h0c-.283-.2-.562-.411-.827-.621s-.534-.457-.79-.681A14.714,14.714,0,0,1,5.2,45.386a14.01,14.01,0,0,1-1.558-3.17,11.754,11.754,0,0,1-.621-2.59c0-.2-.041-.407-.055-.612a5.125,5.125,0,0,1-2.7-3.257,9.375,9.375,0,0,1,.279-5.518L1.69,30.6a8.223,8.223,0,0,0-.27,4.806A4.047,4.047,0,0,0,3,37.643a4.322,4.322,0,0,1,.059-.539,13.143,13.143,0,0,1,2.129-5.4A16.569,16.569,0,0,1,10.826,26.5l.091.064,7.177,4.5a21.6,21.6,0,0,0-3.728.914,1.708,1.708,0,1,0,1.115,3.23,18.273,18.273,0,0,1,6.08-.946,21.694,21.694,0,0,1,6.29,1,1.716,1.716,0,0,0,1-3.284,27.075,27.075,0,0,0-2.787-.708L31.086,23.5ZM47.572,2.108H43.516a.407.407,0,0,0-.4.4v9.853a.4.4,0,0,0,.4.4h4.057a.4.4,0,0,0,.4-.4V2.505A.4.4,0,0,0,47.572,2.108ZM42.09,3.866a.767.767,0,0,0-.128-.48c-.26-.352-.914-.247-1.3-.247a5.747,5.747,0,0,1-1.247-.1,14.2,14.2,0,0,1-1.777-.589c-2.206-.79-4.084-1.279-6.4-2.284a1.772,1.772,0,0,0-1.485,0,38.656,38.656,0,0,0-6.2,2.91,2.48,2.48,0,0,0-.53.384,2.357,2.357,0,0,0-.4.534A64.92,64.92,0,0,0,19.213,9.6a1.817,1.817,0,0,0-.256,1.677c.982,1.617,2.741-.681,4.659-2.211.8-.644,1.9-1.215,2.832-1.868A14.714,14.714,0,0,1,29.51,5.945c1.983-.174,2.147,2.672-.457,2.777-1.768.069-5.413,1.672-6.436,3.152-.955,1.37-.429,2.741,1.517,2.681l1.626-.3c2.586-.489,2.512-.585,5.212-.082a12.277,12.277,0,0,0,4.454.27,4.77,4.77,0,0,0,2.2-1.151,7.478,7.478,0,0,1,1.293-.914,4.943,4.943,0,0,1,1.179-.5c.621-.146,1.494.064,1.855-.457a1.019,1.019,0,0,0,.151-.534V3.866ZM21.863,16.593a2.873,2.873,0,1,0,3.417.26c-.283.059-.534.119-.694.146h0a2.924,2.924,0,0,1-.4.041,5.089,5.089,0,0,1-2.321-.457Zm-3.029-2.238-6.478,9.972,10.685,6.761L32.251,16.9c-.608-.082-1.174-.187-1.731-.288l-.356-.069L23.544,26.6a1.868,1.868,0,0,0-2.576.576L16.746,24.5a1.868,1.868,0,0,0-.576-2.567l4.253-6.455a3.755,3.755,0,0,1-.548-1,2.663,2.663,0,0,1-1.042-.091Zm16.5,20.1a1.951,1.951,0,1,1-1.37.571A1.9,1.9,0,0,1,35.33,34.455Z" transform="translate(0.026 -0.003)" fill="#036456" fill-rule="evenodd"/>
</svg>
