<svg xmlns="http://www.w3.org/2000/svg" width="413" height="934.044" viewBox="0 0 413 934.044">
  <path id="Sottrazione_1" data-name="Sottrazione 1" d="M413,1088.523h0c-14.394-1.753-28.859-4.2-42.992-7.276-13.968-3.038-27.955-6.763-41.575-11.071-13.481-4.264-26.929-9.2-39.971-14.68-12.931-5.43-25.776-11.52-38.179-18.1A472.736,472.736,0,0,1,69.31,867.433c-7.32-11.916-14.183-24.3-20.4-36.805C42.65,818.029,36.894,805,31.8,791.9c-5.138-13.221-9.725-26.835-13.633-40.464-3.951-13.779-7.3-27.914-9.97-42.013-2.7-14.273-4.757-28.867-6.119-43.374C.7,651.341,0,636.353,0,621.5s.7-29.842,2.081-44.548c1.362-14.508,3.421-29.1,6.119-43.374,2.665-14.1,6.019-28.234,9.97-42.013,3.908-13.63,8.495-27.244,13.633-40.464,5.091-13.1,10.848-26.129,17.109-38.728,6.215-12.506,13.078-24.889,20.4-36.805A472.54,472.54,0,0,1,250.284,205.606c12.4-6.581,25.249-12.671,38.179-18.1,13.044-5.477,26.492-10.416,39.971-14.68,13.621-4.308,27.608-8.033,41.575-11.071,14.133-3.074,28.6-5.522,42.992-7.276v934.043Z" transform="translate(0 -154.479)" fill="#e6faee"/>
</svg>
